<svg xmlns="http://www.w3.org/2000/svg" width="345.052" height="36.599" viewBox="0 0 345.052 36.599"><g id="Raggruppa_25" data-name="Raggruppa 25" transform="translate(-114.003 -45.805)"><g id="Raggruppa_23" data-name="Raggruppa 23" transform="translate(114.003 45.805)"><g id="Raggruppa_2" data-name="Raggruppa 2"><g id="Raggruppa_1" data-name="Raggruppa 1"><path id="Tracciato_1" data-name="Tracciato 1" d="M114,64.105c0-10.709,8.072-18.3,19.066-18.3,6.388,0,11.538,2.363,14.906,6.636l-6.24,5.732a10.193,10.193,0,0,0-8.171-4.123c-5.694,0-9.657,4.022-9.657,10.056s3.962,10.055,9.657,10.055a10.2,10.2,0,0,0,8.171-4.122l6.24,5.731c-3.368,4.274-8.517,6.636-14.906,6.636C122.075,82.4,114,74.813,114,64.105Z" transform="translate(-114.003 -45.805)" fill="#00a490"></path></g></g><g id="Raggruppa_4" data-name="Raggruppa 4" transform="translate(34.313)"><g id="Raggruppa_3" data-name="Raggruppa 3"><path id="Tracciato_2" data-name="Tracciato 2" d="M147.707,64.105c0-10.559,8.159-18.3,19.236-18.3s19.237,7.742,19.237,18.3-8.16,18.3-19.237,18.3S147.707,74.663,147.707,64.105Zm28.582,0c0-6.084-4.1-10.056-9.346-10.056S157.6,58.021,157.6,64.105s4.1,10.055,9.346,10.055S176.289,70.188,176.289,64.105Z" transform="translate(-147.707 -45.805)" fill="#00a490"></path></g></g><g id="Raggruppa_6" data-name="Raggruppa 6" transform="translate(75.633 0.703)"><g id="Raggruppa_5" data-name="Raggruppa 5"><path id="Tracciato_3" data-name="Tracciato 3" d="M219.083,81.688l-.1-18.651-8.77,18.591h-4.287l-8.721-18.089V81.688h-8.915V46.5h12.678l7.248,20.311,7.26-20.311h12.375l.1,35.192Z" transform="translate(-188.293 -46.496)" fill="#00a490"></path></g></g><g id="Raggruppa_8" data-name="Raggruppa 8" transform="translate(118.488 0.703)"><g id="Raggruppa_7" data-name="Raggruppa 7"><path id="Tracciato_4" data-name="Tracciato 4" d="M261.644,59.517c0,7.994-5.945,12.97-15.407,12.97h-6.043v9.2h-9.808V46.5h17.2C257.048,46.5,261.644,51.473,261.644,59.517Zm-9.907,0c0-3.268-2.031-5.179-6.094-5.179h-5.449V64.645h5.449C249.706,64.645,251.737,62.734,251.737,59.517Z" transform="translate(-230.386 -46.496)" fill="#00a490"></path></g></g><g id="Raggruppa_10" data-name="Raggruppa 10" transform="translate(152.512 0.703)"><g id="Raggruppa_9" data-name="Raggruppa 9"><path id="Tracciato_5" data-name="Tracciato 5" d="M291.692,74v7.692H263.806V46.5h27.241v7.692H273.532V60.12h15.431v7.441H273.532V74Z" transform="translate(-263.806 -46.496)" fill="#00a490"></path></g></g><g id="Raggruppa_12" data-name="Raggruppa 12" transform="translate(181.787 0.703)"><g id="Raggruppa_11" data-name="Raggruppa 11"><path id="Tracciato_6" data-name="Tracciato 6" d="M303.255,54.389H292.561V46.5h31.19v7.893H313.106v27.3h-9.851Z" transform="translate(-292.561 -46.496)" fill="#00a490"></path></g></g><g id="Raggruppa_14" data-name="Raggruppa 14" transform="translate(215.024 0.703)"><g id="Raggruppa_13" data-name="Raggruppa 13"><path id="Tracciato_7" data-name="Tracciato 7" d="M325.208,46.5h9.677V81.688h-9.677Z" transform="translate(-325.208 -46.496)" fill="#00a490"></path></g></g><g id="Raggruppa_16" data-name="Raggruppa 16" transform="translate(256.809)"><g id="Raggruppa_15" data-name="Raggruppa 15"><path id="Tracciato_8" data-name="Tracciato 8" d="M366.251,64.1c0-10.558,8.066-18.3,19.014-18.3s19.011,7.745,19.01,18.3-8.067,18.3-19.015,18.3S366.249,74.659,366.251,64.1Zm28.249,0c0-6.083-4.055-10.056-9.236-10.057s-9.237,3.971-9.237,10.054,4.054,10.056,9.234,10.057S394.5,70.189,394.5,64.106Z" transform="translate(-366.251 -45.805)" fill="#00a490"></path></g></g><g id="Raggruppa_17" data-name="Raggruppa 17" transform="translate(286.039)"><path id="Tracciato_9" data-name="Tracciato 9" d="M400.464,45.805a21.488,21.488,0,0,0-5.5.71,19.448,19.448,0,0,1,8.1,7.9c3.874,1.1,6.637,4.675,6.637,9.693s-2.762,8.591-6.636,9.692a19.463,19.463,0,0,1-8.1,7.9,21.488,21.488,0,0,0,5.5.71c10.946,0,19.011-7.741,19.011-18.3S411.41,45.805,400.464,45.805Z" transform="translate(-394.962 -45.805)" fill="#00a490"></path></g><g id="Raggruppa_19" data-name="Raggruppa 19" transform="translate(313.319 0.703)"><g id="Raggruppa_18" data-name="Raggruppa 18"><path id="Tracciato_10" data-name="Tracciato 10" d="M436.811,72.337H431.5v9.351h-9.741V46.5H437.5c9.4,0,15.3,4.977,15.3,13.021a11.7,11.7,0,0,1-6.741,11.11l7.429,11.06h-10.43Zm.1-18H431.5V64.645h5.411c4.035,0,6.052-1.911,6.052-5.128C442.961,56.249,440.944,54.338,436.909,54.338Z" transform="translate(-421.757 -46.496)" fill="#00a490"></path></g></g><g id="Raggruppa_21" data-name="Raggruppa 21" transform="translate(226.837 0.703)"><g id="Raggruppa_20" data-name="Raggruppa 20"><path id="Tracciato_11" data-name="Tracciato 11" d="M347.5,54.389H336.811V46.5H368v7.893H357.356v27.3H347.5Z" transform="translate(-336.811 -46.496)" fill="#00a490"></path></g></g><g id="Raggruppa_22" data-name="Raggruppa 22" transform="translate(272.529 9.976)"><path id="Tracciato_12" data-name="Tracciato 12" d="M391.936,60.554a7.159,7.159,0,0,0-6.952-4.95,7.975,7.975,0,0,0-1.44.133,19.036,19.036,0,0,0,0,16.38,7.975,7.975,0,0,0,1.44.133,7.159,7.159,0,0,0,6.952-4.95,12.359,12.359,0,0,1,0-6.747Z" transform="translate(-381.692 -55.604)" fill="#00a490"></path></g></g></g></svg>